<svg width="21" height="27" viewBox="0 0 21 27" fill="none" xmlns="http://www.w3.org/2000/svg">
<path d="M15.1363 0.534175C16.622 0.537201 18.0823 0.919903 19.3786 1.64586L20.5942 2.43613L20.596 2.6871L18.7784 2.25558L18.7865 3.39813C17.6894 2.74001 16.4365 2.37599 15.1491 2.34956C13.5414 2.36091 11.4245 3.50513 11.4014 3.51764C9.9371 4.24753 8.33027 4.64849 6.69473 4.69249C3.69533 4.7136 2.47293 3.63309 2.45265 3.61498L2.52515 13.8882C2.5386 13.9076 3.76407 15.6713 6.77207 15.6502C8.21681 15.5558 9.61888 15.1197 10.8618 14.3772C12.2205 13.6958 13.7076 13.3078 15.226 13.2389C16.4843 13.2415 17.7239 13.5173 18.8616 14.0424L18.8724 15.5648L20.6868 15.552L20.6967 16.9563L19.4811 16.166C18.1847 15.44 16.7246 15.0564 15.2388 15.0533C13.6289 15.0647 11.5086 16.2129 11.4911 16.2224C10.0268 16.9523 8.41994 17.3533 6.7844 17.3973C3.7912 17.4183 2.56631 16.1748 2.54111 16.1488L2.61466 26.5695L0.799274 26.5823L0.619941 1.17375L2.43533 1.16094L2.43548 1.1834C2.44786 1.20134 3.67301 2.96661 6.6824 2.94546C8.12717 2.85106 9.52919 2.41494 10.7722 1.67243C12.1308 0.991076 13.618 0.603071 15.1363 0.534175ZM18.7865 3.39813C18.9946 3.52299 19.1978 3.65725 19.3938 3.80304L20.607 4.25152L20.6839 15.1409L19.4683 14.3506C19.2699 14.2395 19.0672 14.1373 18.8616 14.0424L18.7865 3.39813Z" fill="#0088FF"/>
</svg>
