<svg width="30" height="31" viewBox="0 0 30 31" fill="none" xmlns="http://www.w3.org/2000/svg">
<path fill-rule="evenodd" clip-rule="evenodd" d="M28.8458 18.8323C28.8759 19.1546 27.8434 19.5334 27.8434 19.5334L29.8249 20.6623C29.8249 20.6623 29.5484 21.0018 28.9886 21.3125C29.701 21.8689 29.813 22.4913 29.8177 23.1465C29.8234 23.9529 29.5179 24.6551 28.4784 25.3171C29.0008 25.7859 29.5243 27.5247 29.5281 28.0631C29.5346 28.9839 26.9188 29.8887 26.3151 29.8929C25.7095 29.8972 20.8484 29.9382 17.5434 29.9615C16.0739 29.9719 14.6758 29.9896 13.3817 29.9909L3.22624 30.0353L0.747062 7.68782L11.3803 7.61278L12.8198 1.63897L12.8228 1.63895C12.9152 1.26501 13.2484 0.984953 13.6507 0.982114C13.7287 0.981563 13.8033 0.995557 13.8748 1.01381L13.8766 1.01077L13.9839 1.04692C13.9857 1.04751 13.9863 1.04751 13.9876 1.04871L19.8743 3.014L19.3292 4.64836L14.2739 2.95975L13.1553 7.60025L15.8723 7.58107L15.3746 13.0933C16.0785 13.052 16.8007 13.0269 17.5406 13.0217C24.0424 12.9758 29.3463 14.3124 29.3692 17.5557C29.3735 18.1607 29.0482 18.1848 28.712 18.7359C28.757 18.7652 28.8412 18.7761 28.8458 18.8323ZM8.41858 27.7359C9.03571 28.3378 10.4535 28.1977 10.4535 28.1977L17.2027 28.15L25.6731 28.0903C25.6731 28.0903 26.3882 28.0798 26.9349 27.5314C27.7189 26.7448 26.7413 25.6469 25.7594 25.6539C23.8264 25.6675 11.6207 25.7379 9.38169 25.7537C8.37923 25.7608 7.80144 27.1328 8.41858 27.7359ZM17.6751 24.4404L28.377 20.811L7.36038 20.9594L17.6751 24.4404ZM2.66077 9.48936L4.66018 28.2386L5.75944 28.2308C5.74112 27.6925 6.3699 26.0025 6.88443 25.5264C5.83561 24.8797 5.34446 24.2963 5.33876 23.4893C5.33387 22.7972 5.5142 21.8581 6.29413 21.2676C5.31592 20.9387 5.14893 20.252 5.77378 20.063C6.46625 19.8518 6.54765 20.3268 6.9559 19.7939C6.14748 19.0052 5.69198 18.6733 5.68527 17.7229C5.66714 15.1541 9.04161 13.7387 13.6725 13.2366L14.0696 9.40884L2.66077 9.48936ZM17.5524 14.7798C14.049 14.8045 7.32335 15.6258 7.46534 17.7417C7.50858 18.3815 9.87884 19.1259 9.87884 19.1259L17.6208 19.0713L25.306 19.017C25.306 19.017 27.636 18.1699 27.6483 17.5993C27.6956 15.4802 20.9452 14.7558 17.5524 14.7798ZM0.747129 7.68782C0.747487 7.73863 0.772623 7.95687 0.747129 7.68782V7.68782Z" fill="#0088FF"/>
</svg>
