<svg width="22" height="30" viewBox="0 0 22 30" fill="none" xmlns="http://www.w3.org/2000/svg">
<path d="M11.0817 0.756958C16.7521 0.716936 21.3971 5.02678 21.4349 10.3638C21.5522 13.0417 20.4763 15.6343 18.4965 17.4414C16.9241 18.8189 15.9187 20.7308 15.6759 22.8071L15.5005 24.3865L15.5256 27.9304L15.4465 27.9309L15.5256 27.9313C15.5128 28.7338 14.9222 29.4103 14.1286 29.5301C13.1893 29.6888 12.2391 29.7777 11.2867 29.7963C10.3343 29.7911 9.3835 29.7156 8.44223 29.5702C7.64703 29.4617 7.04598 28.7936 7.02188 27.9914L6.99687 24.4485L6.80018 22.8698C6.52818 20.7971 5.49575 18.8995 3.90412 17.5444C1.89907 15.7654 0.786619 13.1883 0.866108 10.509C0.828595 5.17205 5.41144 0.797128 11.0817 0.756958ZM8.81225 24.4357L8.83498 27.794C9.64984 27.9142 10.4707 27.9763 11.2514 27.981C12.0661 27.9651 12.879 27.8929 13.7099 27.7596L13.6857 24.3339L8.81178 24.3683L8.81225 24.4357ZM11.2653 26.771L8.84546 26.788L8.83692 25.5781L11.2568 25.561L11.2653 26.771ZM11.0945 2.57234C6.40275 2.60559 2.65024 6.18708 2.68052 10.4962C2.61622 12.7045 3.50614 14.7643 5.08092 16.162C6.99226 17.7893 8.23766 20.0611 8.58706 22.5554L13.8848 22.518C14.1957 20.0254 15.4087 17.7324 17.2722 16.1004C18.8547 14.6559 19.7157 12.5836 19.622 10.443C19.5896 6.06733 15.7864 2.53923 11.0945 2.57234ZM13.5912 13.4446C14.2595 13.4399 14.805 13.9778 14.8097 14.646C14.8144 15.3142 14.2765 15.8598 13.6083 15.8645C13.5071 15.8652 13.4092 15.8513 13.3151 15.8285L11.8036 17.2435L11.8323 21.3225L10.6224 21.331L10.5936 17.252L9.06129 15.8585C8.96754 15.8826 8.86976 15.8979 8.7686 15.8987C8.10047 15.9033 7.5549 15.3654 7.55013 14.6973C7.54542 14.0291 8.08336 13.4836 8.75152 13.4788C9.41977 13.4741 9.96528 14.0119 9.96999 14.6802C9.97066 14.7754 9.95892 14.8678 9.93874 14.9568L11.19 16.0945L12.425 14.9392C12.4036 14.8505 12.3905 14.7583 12.3899 14.6631C12.3851 13.995 12.9232 13.4495 13.5912 13.4446Z" fill="#0088FF"/>
</svg>
