<svg width="30" height="30" viewBox="0 0 30 30" fill="none" xmlns="http://www.w3.org/2000/svg">
<path d="M14.9651 0.185579C22.9839 0.128983 29.5309 6.58351 29.5877 14.6023C29.6443 22.6213 23.1891 29.1683 15.1701 29.2249C7.1513 29.2812 0.605011 22.826 0.548414 14.8072C0.492082 6.78862 6.94651 0.242437 14.9651 0.185579ZM14.9779 2.00096C7.96167 2.05074 2.31451 7.77815 2.3638 14.7944C2.41332 21.8109 8.14086 27.4588 15.1573 27.4095C22.1739 27.36 27.8219 21.6317 27.7723 14.6151C27.7226 7.59867 21.9944 1.95144 14.9779 2.00096ZM14.4671 15.2774L16.2825 15.2645L16.2869 15.8876L7.81641 15.9474L7.8036 14.133L14.4587 14.086L14.4671 15.2774ZM16.2741 14.0732L14.4587 14.086L14.3862 3.81964L16.2016 3.80683L16.2741 14.0732Z" fill="#007AFF"/>
</svg>
