<svg width="27" height="30" viewBox="0 0 27 30" fill="none" xmlns="http://www.w3.org/2000/svg">
<path d="M21.4594 22.9896L17.1666 29.3941L14.9619 29.4663L19.7909 22.7875L24.2179 16.5725L26.3594 16.5574L21.4594 22.9896ZM5.59503 16.6707C7.32995 16.6586 8.76121 17.7986 8.77331 19.5038C8.78415 21.0387 7.60669 21.9229 6.25063 22.6633L8.86253 25.6411C9.29742 24.6865 9.49593 23.6415 9.44162 22.5939L9.43831 22.1242L11.0232 22.113L11.0269 22.6364C11.1156 24.1011 10.7827 25.5609 10.0683 26.8425L12.4748 29.3539L10.2356 29.3697L9.01606 28.0228C7.99918 28.9451 6.68309 29.4685 5.31055 29.4963C2.97963 29.5127 1.19926 28.1322 1.18403 25.9755C1.17271 24.3705 2.14679 23.3778 3.49235 22.6066C3.64294 22.5148 3.80281 22.4326 3.97102 22.3503C3.16409 21.4988 2.46401 20.6557 2.456 19.5367C2.44501 17.9783 3.75285 16.6837 5.59503 16.6707ZM24.2072 22.9468C25.7915 22.9357 26.7351 24.2679 26.7471 25.9709L26.7489 26.2248C26.7606 27.8733 25.8538 29.2828 24.2344 29.2944C22.6415 29.3056 21.7239 27.9548 21.7118 26.2428L21.71 25.9898C21.6983 24.3219 22.6227 22.9579 24.2072 22.9468ZM24.2259 24.349C23.4691 24.3544 23.1041 25.0827 23.111 26.0669L23.1115 26.1391C23.1189 27.1882 23.5255 27.8872 24.243 27.8822C24.9442 27.8772 25.3573 27.189 25.3499 26.1399L25.3493 26.0677C25.342 25.0265 24.9518 24.3439 24.2259 24.349ZM4.88571 23.4044C4.75305 23.4683 4.62842 23.5325 4.5043 23.6054C3.54682 24.1354 2.8929 24.7818 2.90081 25.8277C2.91093 27.2626 4.06752 27.8077 5.3845 27.7985C6.34363 27.8343 7.27627 27.4801 7.97042 26.8173L4.88571 23.4044ZM16.9027 16.631C18.4869 16.62 19.4306 17.9522 19.4426 19.6551L19.4444 19.9071C19.456 21.5555 18.5492 22.964 16.9299 22.9757C15.3371 22.9869 14.4195 21.6369 14.4073 19.925L14.4055 19.6741C14.3938 18.0061 15.3182 16.6421 16.9027 16.631ZM6.4096 18.2051C5.91809 17.9173 5.30746 17.9227 4.82177 18.2202C4.33605 18.5178 4.05333 19.0591 4.08657 19.6277C4.09097 20.2513 4.39668 20.7721 5.33654 21.6942C6.40915 21.1362 7.17923 20.5896 7.17237 19.5972C7.19423 19.0281 6.9009 18.493 6.4096 18.2051ZM16.9214 18.04C16.1685 18.0457 15.8045 18.7708 15.8114 19.7501L15.8119 19.8223C15.8193 20.8656 16.2248 21.5614 16.9384 21.5566C17.6371 21.5517 18.0488 20.8664 18.0414 19.8222L18.0409 19.75C18.0336 18.7143 17.6431 18.035 16.9214 18.04ZM19.806 0.293659C22.6959 0.273266 25.8337 2.04426 25.777 6.4089C25.7504 8.356 23.5657 10.4065 23.5494 10.4218C22.7655 9.67649 24.6388 8.45418 24.4847 6.50591C24.2872 4.00577 21.6432 2.687 21.6432 2.687L21.6984 10.5061C21.7256 14.414 16.2478 15.4308 15.5039 13.4093C15.079 12.255 15.0575 10.7623 16.9367 9.69696C18.116 9.03038 19.8256 9.43437 19.8256 9.43437L19.805 0.293666L19.806 0.293659ZM7.76962 14.2803L5.95522 14.2931L5.90399 7.0355L7.71839 7.02172L7.76962 14.2803ZM13.1636 6.98231L7.71839 7.02172L7.71198 6.11354L5.89758 6.12634L5.90399 7.0355L0.458829 7.07588L0.445995 5.25757L13.1508 5.1679L13.1636 6.98231ZM13.1379 3.35252L0.433182 3.44219L0.420369 1.6268L13.1251 1.53713L13.1379 3.35252Z" fill="#0088FF"/>
</svg>
