<svg width="30" height="30" viewBox="0 0 30 30" fill="none" xmlns="http://www.w3.org/2000/svg">
<path fill-rule="evenodd" clip-rule="evenodd" d="M29.6664 15.1928C29.6098 7.17379 23.0632 0.719005 15.0443 0.775603C7.02527 0.832201 0.570479 7.37875 0.627077 15.3977C0.683675 23.4167 7.23023 29.8715 15.2492 29.8149C23.2682 29.7583 29.723 23.2118 29.6664 15.1928ZM27.8702 15.2054C27.8207 8.18883 22.0925 2.54089 15.0758 2.59042C8.05923 2.63994 2.41129 8.36817 2.46081 15.3848C2.51034 22.4014 8.23857 28.0493 15.2552 27.9998C22.2718 27.9503 27.9197 22.2221 27.8702 15.2054ZM20.0995 9.81518C20.8514 9.80987 21.4664 10.6181 21.4735 11.6205C21.4806 12.623 20.8771 13.4398 20.1251 13.4451C19.3731 13.4504 18.7581 12.6422 18.751 11.6397C18.744 10.6373 19.3475 9.82049 20.0995 9.81518ZM12.3927 11.6846C12.3856 10.6815 11.7719 9.87392 11.0217 9.87921C10.2715 9.88451 9.66921 10.7007 9.67629 11.7038C9.68337 12.7068 10.2941 13.5144 11.0473 13.5091C11.8005 13.5038 12.3998 12.6877 12.3927 11.6846ZM15.1791 18.3364C17.7145 18.3185 20.0031 17.7541 21.6469 17.3487C23.2525 16.9528 24.2429 16.7086 24.2469 17.2735C24.2823 22.2854 20.248 26.377 15.2361 26.4124C10.2243 26.4477 6.13269 22.4135 6.09731 17.4016C6.09332 16.8367 7.08703 17.0669 8.69806 17.4401C10.3474 17.8223 12.6438 18.3543 15.1791 18.3364ZM20.793 19.1259C19.5277 19.4666 17.5884 19.9887 15.18 20.0057C12.7716 20.0227 10.8251 19.528 9.55507 19.2052C8.4994 18.937 7.9112 18.7875 7.91375 19.1494C7.93827 22.6233 13.2173 22.7421 15.1992 22.7281C17.4243 22.7124 22.4579 22.5202 22.4334 19.0469C22.4309 18.685 21.8448 18.8428 20.793 19.1259Z" fill="#0088FF"/>
</svg>
