<svg width="30" height="30" viewBox="0 0 30 30" fill="none" xmlns="http://www.w3.org/2000/svg">
<path d="M16.9057 12.2251C19.9573 12.1865 22.487 14.5811 22.6159 17.6303L22.6287 19.4457L24.4431 19.4328C25.1113 19.4281 25.6568 19.966 25.6616 20.6342L25.6957 25.474C25.7004 26.1422 25.1625 26.6877 24.4943 26.6924L24.5114 29.1123L20.8816 29.1379L20.8645 26.718L9.97516 26.7949L9.99224 29.2148L6.36245 29.2404L6.34537 26.8205C5.67718 26.8252 5.13167 26.2873 5.1269 25.6191L5.09274 20.7794C5.08802 20.1112 5.62588 19.5657 6.29413 19.5609L8.10854 19.5481L8.09572 17.7327C8.18151 14.6821 10.6772 12.252 13.729 12.2475L16.9057 12.2251ZM19.5178 7.34816L29.8027 7.27557L29.9436 27.2399L28.1283 27.2527L28.0003 9.12232L19.5308 9.1821L19.5436 10.9965L17.7292 11.0093L17.6651 1.93532L8.59016 1.99938L8.65139 12.8889L2.61737 12.9315L2.71971 27.4321L0.904326 27.4449L0.789037 11.1103L6.85139 11.0675L6.76196 0.196804L19.4667 0.107133L19.5178 7.34816ZM11.4663 23.7404C11.1322 23.7427 10.8628 24.016 10.8652 24.3501L10.8653 24.3686L6.32829 24.4007L6.3367 25.592L24.4857 25.4639L24.4772 24.2726L19.9403 24.3046L19.9401 24.286C19.9378 23.9519 19.6645 23.6825 19.3304 23.6849L11.4663 23.7404ZM8.38363 20.888C7.63195 20.8933 7.02681 21.5073 7.03194 22.2589C7.03725 23.0107 7.65106 23.6159 8.40284 23.6106C9.15447 23.6051 9.75983 22.9914 9.75453 22.2397C9.74905 21.4882 9.13515 20.8829 8.38363 20.888ZM22.3354 20.7896C21.584 20.7952 20.9796 21.409 20.9847 22.1604C20.99 22.9122 21.6038 23.5174 22.3556 23.5121C23.1072 23.5066 23.7126 22.8929 23.7073 22.1412C23.7019 21.3896 23.0871 20.7842 22.3354 20.7896ZM15.3307 14.0517C9.8858 14.0901 9.90441 16.7705 9.92392 19.5353L20.8133 19.4585C20.7938 16.6907 20.7751 14.0134 15.3307 14.0517ZM6.27265 16.5171L4.45726 16.5299L4.44445 14.7145L6.25983 14.7017L6.27265 16.5171ZM26.237 16.3762L24.4216 16.389L24.4088 14.5736L26.2242 14.5608L26.237 16.3762ZM26.2114 12.7464L24.396 12.7592L24.3832 10.9438L26.1986 10.931L26.2114 12.7464ZM12.2712 9.23334L10.4558 9.24615L10.443 7.43077L12.2584 7.41796L12.2712 9.23334ZM15.901 9.20772L14.0856 9.22053L14.0728 7.40515L15.8882 7.39234L15.901 9.20772ZM12.2328 3.78816L12.2456 5.60355L10.4302 5.61636L10.4172 3.78242L12.2328 3.78816ZM15.8754 5.57793L14.06 5.59074L14.0472 3.77536L15.8626 3.76254L15.8754 5.57793Z" fill="#0088FF"/>
</svg>
