<svg width="101" height="95" viewBox="0 0 101 95" fill="none" xmlns="http://www.w3.org/2000/svg">
<line x1="75" y1="11" y2="11" stroke="#005DFF" stroke-width="8"/>
<path d="M56.5 12C56.5 12 45 45.5 9 72" stroke="#005DFF" stroke-width="8"/>
<path d="M56 64C56 64 34.3444 53.5235 18.8666 25" stroke="#005DFF" stroke-width="8"/>
<line x1="37" x2="37" y2="9" stroke="#005DFF" stroke-width="8"/>
<path d="M92.28 93.28C90.36 93.28 88.9467 92.8 88.04 91.84C87.1333 90.8267 86.36 89.3333 85.72 87.36C85.08 85.3333 83.8267 79.9467 81.96 71.2C80.7333 72.2667 78.7333 72.8533 75.96 72.96L62.28 73.44C59.0267 81.3867 56.6267 88.4533 55.08 94.64C49.96 92.8267 47.4 90.7733 47.4 88.48C47.4 87.4667 48.9467 83.68 52.04 77.12C55.1333 70.56 58.6267 63.12 62.52 54.8C66.4667 46.4267 69.1333 40.3467 70.52 36.56L71.96 32.64C71.5333 31.8933 70.4933 30.5333 68.84 28.56C70.76 27.92 72.4133 27.6 73.8 27.6C75.24 27.6 76.4133 27.7067 77.32 27.92C78.28 28.1333 79.1067 28.5067 79.8 29.04C80.5467 29.52 81.1867 30.0267 81.72 30.56C82.3067 31.0933 82.84 31.8933 83.32 32.96C83.8 33.9733 84.2 34.9067 84.52 35.76C84.84 36.56 85.1867 37.7067 85.56 39.2C85.9867 40.6933 86.3067 42 86.52 43.12C86.7867 44.1867 87.1067 45.7067 87.48 47.68C87.9067 49.6 88.3333 51.4667 88.76 53.28C89.1867 55.0933 89.9333 58.56 91 63.68C92.0667 68.7467 92.8933 72.56 93.48 75.12C94.12 77.6267 95 80.4533 96.12 83.6C97.2933 86.7467 98.52 89.2267 99.8 91.04C96.7067 92.5333 94.2 93.28 92.28 93.28ZM75.64 43.28C74.8933 44.9867 73.24 48.64 70.68 54.24C68.1733 59.7867 66.2267 64.2133 64.84 67.52H81.24C78.7333 56 76.8667 47.92 75.64 43.28Z" fill="#005DFF"/>
</svg>
