<svg width="30" height="30" viewBox="0 0 30 30" fill="none" xmlns="http://www.w3.org/2000/svg">
<path d="M15.199 0.591994C23.1929 0.535573 29.719 6.97017 29.7754 14.9641C29.8318 22.958 23.3973 29.4841 15.4033 29.5405C7.40942 29.5969 0.883342 23.1623 0.826921 15.1684C0.770517 7.1745 7.20511 0.648432 15.199 0.591994ZM16.9801 2.36462C16.4015 2.28888 15.8108 2.25178 15.2108 2.25601C12.4971 2.27518 9.98657 3.13662 7.92529 4.5907L8.40694 6.14007L7.60911 6.1457L7.34938 6.56649L6.94143 5.3584C5.16307 6.89134 3.81135 8.9045 3.08604 11.1944L5.05437 10.2976L4.71645 10.8479L5.23618 11.5659L2.70517 12.7166C2.55862 13.5071 2.48506 14.3229 2.49094 15.1567C2.50821 17.6038 3.21083 19.8856 4.41499 21.822L5.46163 21.6466L6.33382 22.6297L5.11454 22.8356C6.19306 24.2475 7.55824 25.4279 9.12242 26.2908L9.13055 25.7819L9.77731 26.5098L10.248 26.5065L10.2406 26.8386C11.8197 27.5183 13.5623 27.8894 15.3916 27.8765C15.8146 27.8735 16.2328 27.85 16.645 27.8071L13.0809 26.4865L13.5223 26.4834L13.5145 25.3789L18.8092 27.2654L18.8404 27.5269C20.5823 27.0325 22.2014 26.1773 23.5913 25.0168L23.4201 24.974C25.949 22.8992 27.6672 19.8773 28.0359 16.4539L28.1487 16.6612C28.304 15.4331 28.2809 14.1887 28.0806 12.9672L27.9742 12.968L27.9553 13.0648C27.5447 10.4474 26.3433 8.09485 24.6035 6.25818L25.2965 5.9232C23.0764 3.62655 20.1431 2.15082 16.9757 1.73769L16.9801 2.36462ZM21.2058 26.4379C20.5064 26.8018 19.769 27.1032 19.0011 27.3344L18.8092 27.2654L18.7936 27.1298L21.2217 25.3773L21.2058 26.4379ZM12.9052 21.7933L11.9966 22.2919L12.4241 22.5252L12.4298 23.3377L13.496 22.753L13.5145 25.3789L12.4415 24.9968L12.4451 25.5007L10.4578 25.5147L13.0809 26.4865L10.248 26.5065L10.2985 24.2473L9.89134 24.4025L9.16427 23.9174L9.13055 25.7819L6.33382 22.6297L7.38339 22.4543L5.53284 21.6353L5.46163 21.6466L5.37204 21.5457L7.32684 19.5621L7.34186 20.8589L8.05261 20.139L8.46731 20.3656L8.45533 19.3608L12.9052 21.7933ZM23.4201 24.974C23.1053 25.2323 22.7788 25.4777 22.4399 25.7056L22.434 24.732L23.4201 24.974ZM22.434 24.732L22.1973 24.6741L21.2217 25.3773L21.2799 21.7215L21.8752 21.9399L22.4124 21.1197L22.434 24.732ZM17.1373 20.2028L17.7463 20.4261L13.496 22.753L13.4915 22.1134L12.9052 21.7933L17.1322 19.4773L17.1373 20.2028ZM24.7013 15.5478L23.6262 15.8425L24.2611 16.8331L25.357 16.5715L25.3777 16.6026L22.4124 21.1197L22.4038 19.4752L21.4936 20.8645L21.2948 20.7897L21.2799 21.7215L17.7463 20.4261L18.7668 19.8681L17.7182 19.4839L17.7158 19.1577L17.1322 19.4773L17.0996 14.869L17.2349 14.9442L17.3815 14.6785L17.4889 14.6777L17.5166 14.7313L17.6207 14.6768L17.6813 14.6764L17.6811 14.6451L18.3797 14.2828L17.7709 13.9462L21.2241 12.1455L21.2299 13.1064L21.7971 12.8104L22.36 13.6971L22.3492 11.8777L24.7013 15.5478ZM7.67107 14.9238L8.39719 14.4441L8.45533 19.3608L7.85143 19.031L7.32684 19.5621L7.26772 14.368L7.67107 14.9238ZM27.5075 15.483L27.7846 15.9928L25.357 16.5715L24.7013 15.5478L27.6449 14.7418L27.5075 15.483ZM28.0839 15.9223C28.0721 16.1006 28.0549 16.2777 28.0359 16.4539L27.7846 15.9928L28.0839 15.9223ZM17.7709 13.9462L17.0956 14.2997L17.0996 14.869L12.0143 12.063L12.7433 11.5832L12.7071 11.1489L17.7709 13.9462ZM27.9553 13.0648C28.035 13.5727 28.0858 14.0904 28.104 14.6165L27.6449 14.7418L27.9553 13.0648ZM16.994 4.33039L17.4491 4.61235L12.3878 7.29169L12.2906 6.11266L12.1539 6.11362L11.1177 6.66197L11.1269 7.95978L12.3878 7.29169L12.7071 11.1489L11.4021 10.4286L11.4048 10.8007L10.6986 11.3369L12.0143 12.063L8.39719 14.4441L8.39094 13.8347L8.02661 14.1029L7.25347 13.041L7.26772 14.368L5.23618 11.5659L5.9507 11.2415L5.68245 10.8704L6.4143 9.67961L5.05437 10.2976L7.34938 6.56649L7.70045 7.60212L8.07691 6.97836L8.66674 6.97419L8.40694 6.14007L12.1539 6.11362L16.9885 3.55405L16.994 4.33039ZM22.0759 7.48308L22.3231 7.36219L22.3492 11.8777L22.1961 11.6386L21.2241 12.1455L21.1931 6.93461L22.0759 7.48308ZM16.9801 2.36462C19.9654 2.7554 22.6302 4.17506 24.6035 6.25818L22.3231 7.36219L22.3134 5.57023L21.1883 6.11431L21.1931 6.93461L17.4491 4.61235L17.6281 4.51831L17.619 3.22049L16.9885 3.55405L16.9801 2.36462Z" fill="#AFAFAF"/>
</svg>
