<svg width="30" height="30" viewBox="0 0 30 30" fill="none" xmlns="http://www.w3.org/2000/svg">
<path d="M23.3313 0.337145C24.8526 0.351905 26.2562 0.982969 27.3912 2.16205C30.6289 5.52684 28.3346 10.0856 26.6156 12.1014C27.823 13.2203 30.6321 16.3348 29.5437 20.3006C27.9484 26.1129 22.8326 26.345 22.472 26.3536L21.5492 26.3601C19.883 28.5619 17.1753 29.3637 15.3467 29.3766C13.3552 29.3906 10.6544 28.4871 9.06313 26.4483L8.14128 26.4548C7.7968 26.4511 2.68022 26.29 1.00339 20.5021C-0.144065 16.544 2.63504 13.3837 3.82704 12.2485C2.08163 10.25 -0.260358 5.73795 2.9221 2.33573C4.04097 1.1394 5.43638 0.488943 6.95676 0.452717C9.95357 0.381943 12.4087 2.68245 12.6786 2.9456L12.6835 2.94947L12.8241 3.07641C13.6533 2.85878 14.5519 2.72829 15.5296 2.72137C16.2848 2.71604 16.9884 2.78507 17.6453 2.91054L17.8432 2.72164C18.5261 2.09656 20.7086 0.311708 23.3313 0.337145ZM15.5424 4.53773C8.54452 4.58735 6.16344 12.02 6.066 12.3372L5.897 12.8834L5.44637 13.2381C5.29713 13.3566 1.67081 16.2849 2.74693 19.9966C4.03999 24.4607 7.74452 24.6345 8.16363 24.6401L9.79152 24.6286C10.2931 24.6251 10.7025 25.0272 10.7061 25.5294C10.7061 25.5358 10.7043 25.5419 10.7033 25.548C10.7024 25.5534 10.7017 25.5597 10.7015 25.5656C12.0335 27.0604 14.1127 27.5697 15.3338 27.5613C16.5822 27.5524 18.6814 26.9942 19.9828 25.4044C20.0109 24.931 20.3981 24.5538 20.8791 24.5504L22.4592 24.5392C22.8597 24.5279 26.5621 24.3023 27.7922 19.8198C28.8147 16.0954 25.1528 13.2203 24.9927 13.0962L24.4802 12.7014L24.3263 12.0658C24.2533 11.7625 22.4257 4.48915 15.5424 4.53773ZM16.9223 19.0528C16.9223 19.0528 17.9211 19.0453 17.9282 20.032C17.9339 20.8308 16.8526 22.0665 15.9105 22.5131L15.9199 23.8451C15.9199 23.8451 15.9158 24.1083 16.09 24.2844C16.1772 24.3733 16.3126 24.439 16.5159 24.4376C17.1276 24.4331 17.1548 23.8481 17.1552 23.8305L18.3655 23.8757L18.3656 23.8816C18.3334 24.7326 17.677 25.6402 16.5245 25.6485C16.0579 25.6518 15.6337 25.4904 15.3103 25.201C14.9905 25.4949 14.5695 25.6623 14.1036 25.6656C12.9509 25.6737 12.2825 24.7753 12.2378 23.9248L12.2377 23.919L13.4473 23.8567C13.448 23.8745 13.4839 24.459 14.0951 24.4547C14.2982 24.4533 14.4313 24.3855 14.5178 24.2955C14.6896 24.1169 14.6817 23.8539 14.6817 23.8539L14.6723 22.5306C13.7205 22.1047 12.6088 20.8726 12.6032 20.0696C12.5964 19.0829 13.5942 19.0763 13.5942 19.0763L16.9223 19.0528ZM9.76388 13.6559C10.4324 13.6514 10.9794 14.4603 10.9866 15.4627C10.9937 16.4641 10.4581 17.2817 9.78951 17.2867C9.12145 17.2914 8.57285 16.4813 8.56579 15.4798C8.55881 14.4773 9.09589 13.6606 9.76388 13.6559ZM20.6562 13.579C21.3247 13.5744 21.8718 14.3833 21.8789 15.3859C21.886 16.3873 21.3504 17.205 20.6818 17.2098C20.0138 17.2145 19.4661 16.4044 19.4591 15.4029C19.4521 14.4004 19.9882 13.5837 20.6562 13.579ZM6.99984 2.26789C6.07965 2.28958 5.12448 2.6402 4.24827 3.5764C1.939 6.04537 3.86946 9.28201 4.81227 10.5667C5.60762 8.77644 7.46172 5.49651 10.8867 3.80104C10.12 3.20372 8.61654 2.22925 6.99984 2.26789ZM23.3129 2.15275C21.8587 2.13884 20.5061 2.94423 19.6977 3.54842C23.2261 5.10242 24.9544 8.47286 25.6725 10.3443C26.6131 9.00028 28.3843 5.81328 26.0827 3.4223C25.1945 2.49845 24.2334 2.16078 23.3129 2.15275Z" fill="#AFAFAF"/>
</svg>
