<svg width="102" height="96" viewBox="0 0 102 96" fill="none" xmlns="http://www.w3.org/2000/svg">
<line x1="75" y1="11" y2="11" stroke="#4E4E4E" stroke-width="8"/>
<path d="M56.5 12C56.5 12 45 45.5 9 72" stroke="#4E4E4E" stroke-width="8"/>
<path d="M56 64C56 64 34.3444 53.5235 18.8666 25" stroke="#4E4E4E" stroke-width="8"/>
<line x1="37" x2="37" y2="9" stroke="#4E4E4E" stroke-width="8"/>
<mask id="path-5-outside-1_1001_32" maskUnits="userSpaceOnUse" x="46" y="26" width="56" height="70" fill="black">
<rect fill="white" x="46" y="26" width="56" height="70"/>
<path d="M92.28 93.28C90.36 93.28 88.9467 92.8 88.04 91.84C87.1333 90.8267 86.36 89.3333 85.72 87.36C85.08 85.3333 83.8267 79.9467 81.96 71.2C80.7333 72.2667 78.7333 72.8533 75.96 72.96L62.28 73.44C59.0267 81.3867 56.6267 88.4533 55.08 94.64C49.96 92.8267 47.4 90.7733 47.4 88.48C47.4 87.4667 48.9467 83.68 52.04 77.12C55.1333 70.56 58.6267 63.12 62.52 54.8C66.4667 46.4267 69.1333 40.3467 70.52 36.56L71.96 32.64C71.5333 31.8933 70.4933 30.5333 68.84 28.56C70.76 27.92 72.4133 27.6 73.8 27.6C75.24 27.6 76.4133 27.7067 77.32 27.92C78.28 28.1333 79.1067 28.5067 79.8 29.04C80.5467 29.52 81.1867 30.0267 81.72 30.56C82.3067 31.0933 82.84 31.8933 83.32 32.96C83.8 33.9733 84.2 34.9067 84.52 35.76C84.84 36.56 85.1867 37.7067 85.56 39.2C85.9867 40.6933 86.3067 42 86.52 43.12C86.7867 44.1867 87.1067 45.7067 87.48 47.68C87.9067 49.6 88.3333 51.4667 88.76 53.28C89.1867 55.0933 89.9333 58.56 91 63.68C92.0667 68.7467 92.8933 72.56 93.48 75.12C94.12 77.6267 95 80.4533 96.12 83.6C97.2933 86.7467 98.52 89.2267 99.8 91.04C96.7067 92.5333 94.2 93.28 92.28 93.28ZM75.64 43.28C74.8933 44.9867 73.24 48.64 70.68 54.24C68.1733 59.7867 66.2267 64.2133 64.84 67.52H81.24C78.7333 56 76.8667 47.92 75.64 43.28Z"/>
</mask>
<path d="M92.28 93.28C90.36 93.28 88.9467 92.8 88.04 91.84C87.1333 90.8267 86.36 89.3333 85.72 87.36C85.08 85.3333 83.8267 79.9467 81.96 71.2C80.7333 72.2667 78.7333 72.8533 75.96 72.96L62.28 73.44C59.0267 81.3867 56.6267 88.4533 55.08 94.64C49.96 92.8267 47.4 90.7733 47.4 88.48C47.4 87.4667 48.9467 83.68 52.04 77.12C55.1333 70.56 58.6267 63.12 62.52 54.8C66.4667 46.4267 69.1333 40.3467 70.52 36.56L71.96 32.64C71.5333 31.8933 70.4933 30.5333 68.84 28.56C70.76 27.92 72.4133 27.6 73.8 27.6C75.24 27.6 76.4133 27.7067 77.32 27.92C78.28 28.1333 79.1067 28.5067 79.8 29.04C80.5467 29.52 81.1867 30.0267 81.72 30.56C82.3067 31.0933 82.84 31.8933 83.32 32.96C83.8 33.9733 84.2 34.9067 84.52 35.76C84.84 36.56 85.1867 37.7067 85.56 39.2C85.9867 40.6933 86.3067 42 86.52 43.12C86.7867 44.1867 87.1067 45.7067 87.48 47.68C87.9067 49.6 88.3333 51.4667 88.76 53.28C89.1867 55.0933 89.9333 58.56 91 63.68C92.0667 68.7467 92.8933 72.56 93.48 75.12C94.12 77.6267 95 80.4533 96.12 83.6C97.2933 86.7467 98.52 89.2267 99.8 91.04C96.7067 92.5333 94.2 93.28 92.28 93.28ZM75.64 43.28C74.8933 44.9867 73.24 48.64 70.68 54.24C68.1733 59.7867 66.2267 64.2133 64.84 67.52H81.24C78.7333 56 76.8667 47.92 75.64 43.28Z" fill="#4E4E4E"/>
<path d="M88.04 91.84L87.2948 92.5068L87.3037 92.5168L87.313 92.5266L88.04 91.84ZM85.72 87.36L84.7664 87.6611L84.7688 87.6685L85.72 87.36ZM81.96 71.2L82.938 70.9913L82.5839 69.3323L81.3038 70.4454L81.96 71.2ZM75.96 72.96L75.9951 73.9594L75.9984 73.9593L75.96 72.96ZM62.28 73.44L62.2449 72.4406L61.5993 72.4633L61.3546 73.0611L62.28 73.44ZM55.08 94.64L54.7462 95.5826L55.7833 95.9499L56.0501 94.8825L55.08 94.64ZM52.04 77.12L52.9445 77.5465L52.9445 77.5465L52.04 77.12ZM62.52 54.8L61.6154 54.3736L61.6143 54.3762L62.52 54.8ZM70.52 36.56L69.5813 36.2152L69.581 36.2161L70.52 36.56ZM71.96 32.64L72.8987 32.9848L73.0592 32.5479L72.8282 32.1439L71.96 32.64ZM68.84 28.56L68.5238 27.6113L67.1299 28.076L68.0735 29.2022L68.84 28.56ZM77.32 27.92L77.0909 28.8935L77.1031 28.8962L77.32 27.92ZM79.8 29.04L79.1903 29.8326L79.2237 29.8584L79.2592 29.8812L79.8 29.04ZM81.72 30.56L81.0129 31.2671L81.0297 31.2839L81.0473 31.2999L81.72 30.56ZM83.32 32.96L82.4081 33.3704L82.4121 33.3793L82.4163 33.3881L83.32 32.96ZM84.52 35.76L83.5837 36.1111L83.5875 36.1213L83.5915 36.1314L84.52 35.76ZM85.56 39.2L84.5899 39.4425L84.5939 39.4587L84.5985 39.4747L85.56 39.2ZM86.52 43.12L85.5377 43.3071L85.543 43.335L85.5499 43.3625L86.52 43.12ZM87.48 47.68L86.4974 47.8659L86.5004 47.8815L86.5038 47.8969L87.48 47.68ZM88.76 53.28L89.7334 53.051L89.7334 53.051L88.76 53.28ZM91 63.68L90.021 63.884L90.0215 63.886L91 63.68ZM93.48 75.12L92.5053 75.3434L92.508 75.3554L92.5111 75.3674L93.48 75.12ZM96.12 83.6L95.1779 83.9353L95.1804 83.9424L95.183 83.9494L96.12 83.6ZM99.8 91.04L100.235 91.9406L101.298 91.4275L100.617 90.4633L99.8 91.04ZM75.64 43.28L76.6068 43.0244L75.8736 40.2511L74.7238 42.8792L75.64 43.28ZM70.68 54.24L69.7705 53.8242L69.7687 53.8282L70.68 54.24ZM64.84 67.52L63.9178 67.1333L63.3363 68.52H64.84V67.52ZM81.24 67.52V68.52H82.481L82.2171 67.3074L81.24 67.52ZM92.28 93.28V92.28C90.509 92.28 89.4128 91.8372 88.767 91.1534L88.04 91.84L87.313 92.5266C88.4805 93.7628 90.211 94.28 92.28 94.28V93.28ZM88.04 91.84L88.7852 91.1732C88.0072 90.3036 87.2886 88.9552 86.6712 87.0515L85.72 87.36L84.7688 87.6685C85.4314 89.7115 86.2595 91.3497 87.2948 92.5068L88.04 91.84ZM85.72 87.36L86.6736 87.0589C86.0514 85.0886 84.8087 79.7571 82.938 70.9913L81.96 71.2L80.982 71.4087C82.8446 80.1363 84.1086 85.5781 84.7664 87.6611L85.72 87.36ZM81.96 71.2L81.3038 70.4454C80.3342 71.2886 78.6134 71.8572 75.9216 71.9607L75.96 72.96L75.9984 73.9593C78.8532 73.8495 81.1325 73.2448 82.6162 71.9546L81.96 71.2ZM75.96 72.96L75.9249 71.9606L62.2449 72.4406L62.28 73.44L62.3151 74.4394L75.9951 73.9594L75.96 72.96ZM62.28 73.44L61.3546 73.0611C58.0889 81.038 55.6713 88.1516 54.1099 94.3975L55.08 94.64L56.0501 94.8825C57.582 88.7551 59.9645 81.7353 63.2054 73.8189L62.28 73.44ZM55.08 94.64L55.4138 93.6974C52.8998 92.807 51.0996 91.8854 49.9457 90.9599C48.7959 90.0377 48.4 89.2091 48.4 88.48H47.4H46.4C46.4 90.0443 47.2841 91.389 48.6943 92.5201C50.1004 93.6479 52.1402 94.6597 54.7462 95.5826L55.08 94.64ZM47.4 88.48H48.4C48.4 88.48 48.4 88.4796 48.4 88.4786C48.4 88.4776 48.4001 88.4762 48.4002 88.4744C48.4003 88.4706 48.4007 88.4652 48.4012 88.4581C48.4024 88.4436 48.4045 88.4239 48.4082 88.3982C48.4156 88.3463 48.4281 88.2779 48.4478 88.191C48.4874 88.0161 48.5506 87.7896 48.6418 87.5067C48.8241 86.9409 49.1036 86.1938 49.4858 85.2581C50.2492 83.3889 51.4006 80.8207 52.9445 77.5465L52.04 77.12L51.1355 76.6935C49.5861 79.9793 48.4174 82.5844 47.6342 84.5019C47.2431 85.4595 46.9426 86.2591 46.7382 86.8933C46.5465 87.4882 46.4 88.0515 46.4 88.48H47.4ZM52.04 77.12L52.9445 77.5465C56.0383 70.9854 59.5321 63.5445 63.4257 55.2238L62.52 54.8L61.6143 54.3762C57.7212 62.6955 54.2283 70.1346 51.1355 76.6935L52.04 77.12ZM62.52 54.8L63.4246 55.2263C67.372 46.8515 70.0556 40.7362 71.459 36.9039L70.52 36.56L69.581 36.2161C68.2111 39.9571 65.5614 46.0019 61.6154 54.3736L62.52 54.8ZM70.52 36.56L71.4587 36.9048L72.8987 32.9848L71.96 32.64L71.0213 32.2952L69.5813 36.2152L70.52 36.56ZM71.96 32.64L72.8282 32.1439C72.3499 31.3067 71.2502 29.8795 69.6065 27.9178L68.84 28.56L68.0735 29.2022C69.7365 31.1871 70.7168 32.48 71.0918 33.1361L71.96 32.64ZM68.84 28.56L69.1562 29.5087C71.0167 28.8885 72.5579 28.6 73.8 28.6V27.6V26.6C72.2687 26.6 70.5033 26.9515 68.5238 27.6113L68.84 28.56ZM73.8 27.6V28.6C75.1999 28.6 76.2884 28.7046 77.091 28.8934L77.32 27.92L77.549 26.9466C76.5383 26.7088 75.2801 26.6 73.8 26.6V27.6ZM77.32 27.92L77.1031 28.8962C77.9381 29.0817 78.6265 29.399 79.1903 29.8326L79.8 29.04L80.4097 28.2474C79.5868 27.6144 78.6219 27.1849 77.5369 26.9438L77.32 27.92ZM79.8 29.04L79.2592 29.8812C79.9561 30.3291 80.538 30.7922 81.0129 31.2671L81.72 30.56L82.4271 29.8529C81.8353 29.2611 81.1373 28.7109 80.3408 28.1988L79.8 29.04ZM81.72 30.56L81.0473 31.2999C81.4961 31.7079 81.9599 32.3745 82.4081 33.3704L83.32 32.96L84.2319 32.5496C83.7201 31.4122 83.1172 30.4787 82.3927 29.8201L81.72 30.56ZM83.32 32.96L82.4163 33.3881C82.8869 34.3817 83.2754 35.289 83.5837 36.1111L84.52 35.76L85.4563 35.4089C85.1246 34.5243 84.7131 33.565 84.2237 32.5319L83.32 32.96ZM84.52 35.76L83.5915 36.1314C83.8866 36.869 84.2204 37.9647 84.5899 39.4425L85.56 39.2L86.5301 38.9575C86.1529 37.4486 85.7934 36.251 85.4485 35.3886L84.52 35.76ZM85.56 39.2L84.5985 39.4747C85.0196 40.9487 85.3315 42.225 85.5377 43.3071L86.52 43.12L87.5023 42.9329C87.2818 41.775 86.9537 40.4379 86.5215 38.9253L85.56 39.2ZM86.52 43.12L85.5499 43.3625C85.8095 44.4011 86.1253 45.8988 86.4974 47.8659L87.48 47.68L88.4626 47.4941C88.0881 45.5145 87.7638 43.9723 87.4901 42.8775L86.52 43.12ZM87.48 47.68L86.5038 47.8969C86.9313 49.8207 87.3589 51.6915 87.7866 53.509L88.76 53.28L89.7334 53.051C89.3078 51.2419 88.882 49.3792 88.4562 47.4631L87.48 47.68ZM88.76 53.28L87.7866 53.509C88.2099 55.308 88.954 58.7625 90.021 63.884L91 63.68L91.979 63.476C90.9126 58.3575 90.1635 54.8787 89.7334 53.051L88.76 53.28ZM91 63.68L90.0215 63.886C91.0884 68.9541 91.9166 72.7744 92.5053 75.3434L93.48 75.12L94.4547 74.8966C93.8701 72.3456 93.0449 68.5393 91.9786 63.474L91 63.68ZM93.48 75.12L92.5111 75.3674C93.1605 77.9108 94.0504 80.7676 95.1779 83.9353L96.12 83.6L97.0621 83.2647C95.9496 80.1391 95.0795 77.3425 94.4489 74.8726L93.48 75.12ZM96.12 83.6L95.183 83.9494C96.3727 87.1399 97.635 89.707 98.983 91.6167L99.8 91.04L100.617 90.4633C99.405 88.7464 98.2139 86.3534 97.057 83.2506L96.12 83.6ZM99.8 91.04L99.3653 90.1394C96.3167 91.6112 93.9736 92.28 92.28 92.28V93.28V94.28C94.4264 94.28 97.0966 93.4555 100.235 91.9406L99.8 91.04ZM75.64 43.28L74.7238 42.8792C73.9811 44.5769 72.3313 48.2225 69.7705 53.8242L70.68 54.24L71.5895 54.6558C74.1487 49.0575 75.8056 45.3964 76.5562 43.6808L75.64 43.28ZM70.68 54.24L69.7687 53.8282C67.2605 59.3783 65.3096 63.8144 63.9178 67.1333L64.84 67.52L65.7622 67.9067C67.1437 64.6123 69.0862 60.195 71.5913 54.6518L70.68 54.24ZM64.84 67.52V68.52H81.24V67.52V66.52H64.84V67.52ZM81.24 67.52L82.2171 67.3074C79.7105 55.7877 77.8397 47.6881 76.6068 43.0244L75.64 43.28L74.6732 43.5356C75.8936 48.1519 77.7561 56.2123 80.2629 67.7326L81.24 67.52Z" fill="#4E4E4E" mask="url(#path-5-outside-1_1001_32)"/>
</svg>
